# xmcd
#
# Track frame offsets:
#	150
#	13881
#	27564
#	43126
#	54723
#	64082
#	81876
#	101032
#	110620
#	128012
#	154399
#	164529
#	184463
#	197788
#
# Disc length: 2834 seconds
#
# Revision: 1
# Processed by: cddbd v1.5.1PL2 Copyright (c) Steve Scherf et al.
# Submitted via: audiograbber 1.83.01
#
DISCID=d00b100e
DTITLE=Diabolske Husle - Silvia - Silvia
DYEAR=2005
DGENRE=popoo
TTITLE0=Track  jhhjhjghj
TTITLE1=hjhj
TTITLE2=Track  ghjhj
TTITLE3=Track  jhgjhj
TTITLE4=hjhgj
TTITLE5=hjghj
TTITLE6=Track  jhj
TTITLE7=hjhgj
TTITLE8=jkjkTrack  9
TTITLE9=hjhTrack 10
TTITLE10=hjTrack 11
TTITLE11=hjhTrack 12
TTITLE12=hjhTrack 13
TTITLE13=hjghg
EXTD=
EXTT0=
EXTT1=
EXTT2=
EXTT3=
EXTT4=
EXTT5=
EXTT6=
EXTT7=
EXTT8=
EXTT9=
EXTT10=
EXTT11=
EXTT12=
EXTT13=
PLAYORDER=
